<?xml version="1.0" encoding="utf-8"?>
<!-- Generator: Adobe Illustrator 15.0.0, SVG Export Plug-In . SVG Version: 6.00 Build 0)  -->
<!DOCTYPE svg PUBLIC "-//W3C//DTD SVG 1.1//EN" "http://www.w3.org/Graphics/SVG/1.1/DTD/svg11.dtd">
<svg version="1.1" id="Layer_1" xmlns="http://www.w3.org/2000/svg" xmlns:xlink="http://www.w3.org/1999/xlink" x="0px" y="0px"
	 width="97.333px" height="63.667px" viewBox="0 0 97.333 63.667" enable-background="new 0 0 97.333 63.667" xml:space="preserve">
<g>
	<path fill="#FFFFFF" d="M89.659,11.471H59.828V7.89c0-4.229-3.44-7.669-7.669-7.669H8.497c-4.229,0-7.669,3.44-7.669,7.669v26.911
		c0,4.229,3.44,7.669,7.669,7.669h6.424l5.174,8.997c0.344,0.598,0.972,0.977,1.661,1.001c0.024,0.001,0.049,0.001,0.072,0.001
		c0.663,0,1.285-0.329,1.657-0.881l6.155-9.119h8.688v3.581c0,4.229,3.44,7.669,7.669,7.669h22.519l6.155,9.119
		c0.372,0.552,0.994,0.881,1.657,0.881c0.023,0,0.048,0,0.072-0.001c0.689-0.024,1.317-0.403,1.661-1.001l5.174-8.997h6.424
		c4.229,0,7.669-3.44,7.669-7.669V19.14C97.328,14.911,93.888,11.471,89.659,11.471z M28.578,38.471
		c-0.665,0-1.286,0.33-1.657,0.881l-4.957,7.343l-4.152-7.221c-0.356-0.621-1.018-1.003-1.733-1.003H8.497
		c-2.023,0-3.669-1.646-3.669-3.669V7.89c0-2.023,1.646-3.669,3.669-3.669h43.662c2.023,0,3.669,1.646,3.669,3.669v3.581h-9.831
		c-4.229,0-7.669,3.44-7.669,7.669v19.331H28.578z M93.328,46.051c0,2.023-1.646,3.669-3.669,3.669h-7.581
		c-0.716,0-1.377,0.382-1.733,1.003l-4.152,7.221l-4.957-7.343c-0.371-0.551-0.992-0.881-1.657-0.881H45.997
		c-2.023,0-3.669-1.646-3.669-3.669v-3.581v-4V19.14c0-2.023,1.646-3.669,3.669-3.669h9.831h4h29.831
		c2.023,0,3.669,1.646,3.669,3.669V46.051z"/>
</g>
</svg>
