<?xml version="1.0" encoding="utf-8"?>
<!-- Generator: Adobe Illustrator 15.0.0, SVG Export Plug-In . SVG Version: 6.00 Build 0)  -->
<!DOCTYPE svg PUBLIC "-//W3C//DTD SVG 1.1//EN" "http://www.w3.org/Graphics/SVG/1.1/DTD/svg11.dtd">
<svg version="1.1" id="Layer_1" xmlns="http://www.w3.org/2000/svg" xmlns:xlink="http://www.w3.org/1999/xlink" x="0px" y="0px"
	 width="128px" height="72px" viewBox="0 0 128 72" enable-background="new 0 0 128 72" xml:space="preserve">
<g>
	<path fill="#FFFFFF" d="M102.912,72.137h-31.5c-1.381,0-2.5-1.119-2.5-2.5v-22.25c0-1.381,1.119-2.5,2.5-2.5h1.866l-8.647-9.559
		l-8.952,9.559h1.483c0.673,0,1.317,0.271,1.787,0.752c0.471,0.481,0.728,1.132,0.712,1.804l-0.5,22.25
		c-0.03,1.358-1.141,2.444-2.499,2.444h-43c-5.322,0-13.241-4.261-13.241-15.998c0-5.507,3.379-12.223,10.887-15.374
		c1.396-4.443,6.024-11.006,16.213-12.204c1.128-12.37,11.136-28.177,31.862-28.424c14.693,0,24.388,11.061,27.818,16.162
		c2.664-0.792,6.539-1.293,10.412-1.293c7.225,0,30.799,2.083,30.799,28.881C128.412,64.443,107.238,72.137,102.912,72.137z
		 M73.912,67.137h28.996c2.006-0.051,20.504-5.75,20.504-23.25c0-20.778-16.164-23.881-25.799-23.881
		c-5.17,0-9.048,0.952-10.115,1.499c-0.388,0.245-0.841,0.381-1.312,0.384c-0.007,0-0.014,0-0.021,0
		c-0.663,0-1.303-0.266-1.771-0.735c-0.216-0.216-0.388-0.466-0.511-0.737c-0.645-1.07-9.593-15.28-24.472-15.28
		c-20.393,0.243-27,17.454-27,25.75c0,1.347-1.067,2.452-2.414,2.499c-12.19,0.42-14.055,9.328-14.128,9.708
		c-0.17,0.878-0.8,1.618-1.646,1.908c-6.949,2.389-8.804,8.125-8.804,11.138c0,10.873,7.904,10.998,8.241,10.998h40.556l0.388-17.25
		h-4.693c-0.996,0-1.897-0.591-2.294-1.505s-0.212-1.977,0.469-2.704l14.75-15.75c0.478-0.51,1.128-0.805,1.847-0.791
		c0.699,0.006,1.363,0.304,1.832,0.823l14.25,15.75c0.663,0.733,0.833,1.788,0.432,2.691s-1.297,1.486-2.285,1.486h-5V67.137z"/>
</g>
</svg>
