<?xml version="1.0" encoding="utf-8"?>
<!-- Generator: Adobe Illustrator 15.0.0, SVG Export Plug-In . SVG Version: 6.00 Build 0)  -->
<!DOCTYPE svg PUBLIC "-//W3C//DTD SVG 1.1//EN" "http://www.w3.org/Graphics/SVG/1.1/DTD/svg11.dtd">
<svg version="1.1" id="Layer_1" xmlns="http://www.w3.org/2000/svg" xmlns:xlink="http://www.w3.org/1999/xlink" x="0px" y="0px"
	 width="118px" height="64px" viewBox="0 0 118 64" enable-background="new 0 0 118 64" xml:space="preserve">
<g>
	<path fill="#FFFFFF" d="M9.519,24.135H5.591c-3.131,0-5.669,2.538-5.669,5.669v24.646c0,3.131,2.538,5.669,5.669,5.669h3.928
		c3.131,0,5.669-2.538,5.669-5.669V29.805C15.188,26.673,12.65,24.135,9.519,24.135z M10.826,55.577H4.102V29.042h6.724V55.577z"/>
	<path fill="#FFFFFF" d="M112.021,29.135h-3.928c-3.131,0-5.669,2.538-5.669,5.669v19.646c0,3.131,2.538,5.669,5.669,5.669h3.928
		c3.131,0,5.669-2.538,5.669-5.669V34.805C117.69,31.673,115.152,29.135,112.021,29.135z M113.328,55.577h-6.724V34.042h6.724
		V55.577z"/>
	<path fill="#FFFFFF" d="M28.965,14.135h-3.928c-3.131,0-5.669,2.538-5.669,5.669v34.646c0,3.131,2.538,5.669,5.669,5.669h3.928
		c3.131,0,5.669-2.538,5.669-5.669V19.805C34.634,16.673,32.096,14.135,28.965,14.135z M30.272,55.577h-6.724V19.042h6.724V55.577z"
		/>
	<path fill="#FFFFFF" d="M50.229,0.135h-3.928c-3.131,0-5.669,2.538-5.669,5.669v48.646c0,3.131,2.538,5.669,5.669,5.669h3.928
		c3.131,0,5.669-2.538,5.669-5.669V5.805C55.898,2.673,53.36,0.135,50.229,0.135z M51.536,55.577h-6.724V5.042h6.724V55.577z"/>
	<path fill="#FFFFFF" d="M81.648,25.215V10.846c4.386,1.364,6.519,2.897,7.032,5.805l0.281,1.591l6.883-1.387l-0.315-1.42
		c-1.143-5.144-4.797-10.804-12.88-11.979l-1.487,0.028V0.871h-3.453v2.676l-1.922,0.036c-7.956,1.461-13.598,7.578-13.598,14.971
		c0,6.695,6.294,11.062,15.52,13.678v18.059c-4.233-1.316-7.986-3.327-8.104-7.26l-0.058-1.932l-7.807,0.257l0.198,1.302
		c1.103,7.255,7.698,13.513,15.771,14.569v6.163h3.453v-6.517l0.045-0.004c8.688-1.457,16.086-8.175,16.086-16.269
		C97.292,32.897,91.764,28.121,81.648,25.215z M70.499,17.024c0-5.365,4.016-6.468,7.209-6.973v14.121
		C73.338,22.49,70.499,22.37,70.499,17.024z M81.648,50.194V33.22c6.183,1.46,8.333,4.291,8.333,7.586
		C89.981,44.713,86.547,49.523,81.648,50.194z"/>
</g>
</svg>
