<?xml version="1.0" encoding="utf-8"?>
<!-- Generator: Adobe Illustrator 15.0.0, SVG Export Plug-In . SVG Version: 6.00 Build 0)  -->
<!DOCTYPE svg PUBLIC "-//W3C//DTD SVG 1.1//EN" "http://www.w3.org/Graphics/SVG/1.1/DTD/svg11.dtd">
<svg version="1.1" id="Layer_1" xmlns="http://www.w3.org/2000/svg" xmlns:xlink="http://www.w3.org/1999/xlink" x="0px" y="0px"
	 width="84px" height="80px" viewBox="0 0 84 80" enable-background="new 0 0 84 80" xml:space="preserve">
<g>
	<path fill="#FFFFFF" d="M27.249,33.888h28.995c3.131,0,5.669-2.538,5.669-5.669V6.724c0-3.131-2.538-5.669-5.669-5.669H27.249
		c-3.131,0-5.669,2.538-5.669,5.669v21.494C21.579,31.35,24.117,33.888,27.249,33.888z M26.079,5.054h31.75v24.75h-31.75V5.054z"/>
	<path fill="#FFFFFF" d="M61.243,37.721H22.249c-3.131,0-5.669,2.538-5.669,5.669v31.161c0,3.131,2.538,5.669,5.669,5.669h38.995
		c3.131,0,5.669-2.538,5.669-5.669V43.39C66.913,40.259,64.375,37.721,61.243,37.721z M61.579,74.554h-39.75v-32.25h39.75V74.554z"
		/>
	<path fill="#FFFFFF" d="M13.162,44.888H4.995c-0.874,0-1.583,0.709-1.583,1.583c0,0.874,0.709,1.583,1.583,1.583h8.167
		c0.875,0,1.583-0.709,1.583-1.583C14.746,45.597,14.037,44.888,13.162,44.888z"/>
	<path fill="#FFFFFF" d="M12.662,51.888H2.496c-1.151,0-2.083,0.933-2.083,2.083c0,1.15,0.933,2.083,2.083,2.083h10.166
		c1.151,0,2.083-0.933,2.083-2.083C14.746,52.82,13.813,51.888,12.662,51.888z"/>
	<path fill="#FFFFFF" d="M12.662,58.554H2.496c-1.151,0-2.083,0.933-2.083,2.083c0,1.15,0.933,2.083,2.083,2.083h10.166
		c1.151,0,2.083-0.933,2.083-2.083C14.746,59.487,13.813,58.554,12.662,58.554z"/>
	<path fill="#FFFFFF" d="M69.913,46.471c0,0.874,0.709,1.583,1.583,1.583h8.167c0.874,0,1.583-0.709,1.583-1.583
		c0-0.875-0.709-1.583-1.583-1.583h-8.167C70.622,44.888,69.913,45.597,69.913,46.471z"/>
	<path fill="#FFFFFF" d="M69.913,53.971c0,1.15,0.933,2.083,2.083,2.083h10.166c1.151,0,2.083-0.933,2.083-2.083
		c0-1.151-0.933-2.083-2.083-2.083H71.996C70.845,51.888,69.913,52.82,69.913,53.971z"/>
	<path fill="#FFFFFF" d="M82.162,58.554H71.996c-1.151,0-2.083,0.933-2.083,2.083c0,1.15,0.933,2.083,2.083,2.083h10.166
		c1.151,0,2.083-0.933,2.083-2.083C84.246,59.487,83.313,58.554,82.162,58.554z"/>
	<circle fill="#FFFFFF" cx="12.662" cy="38.804" r="1.917"/>
	<circle fill="#FFFFFF" cx="71.662" cy="38.804" r="1.917"/>
	<path fill="#FFFFFF" d="M6.996,66.054c-3.912,0-7.083,3.171-7.083,7.083s3.171,7.083,7.083,7.083s7.083-3.171,7.083-7.083
		S10.908,66.054,6.996,66.054z M7.329,76.888c-2.163,0-3.917-0.896-3.917-2s1.753-2,3.917-2s3.917,0.896,3.917,2
		S9.492,76.888,7.329,76.888z"/>
	<path fill="#FFFFFF" d="M76.829,66.054c-3.912,0-7.083,3.171-7.083,7.083s3.171,7.083,7.083,7.083s7.083-3.171,7.083-7.083
		S80.741,66.054,76.829,66.054z M76.829,76.888c-2.163,0-3.917-0.896-3.917-2s1.753-2,3.917-2s3.917,0.896,3.917,2
		S78.992,76.888,76.829,76.888z"/>
	<circle fill="#FFFFFF" cx="34.496" cy="13.804" r="3.917"/>
	<circle fill="#FFFFFF" cx="49.663" cy="13.804" r="3.917"/>
	<rect x="29.58" y="22.388" fill="#FFFFFF" width="4.417" height="4.417"/>
	<rect x="36.413" y="22.388" fill="#FFFFFF" width="4.417" height="4.417"/>
	<rect x="43.246" y="22.388" fill="#FFFFFF" width="4.417" height="4.417"/>
	<rect x="50.079" y="22.388" fill="#FFFFFF" width="4.417" height="4.417"/>
</g>
</svg>
