<?xml version="1.0" encoding="utf-8"?>
<!-- Generator: Adobe Illustrator 15.0.0, SVG Export Plug-In . SVG Version: 6.00 Build 0)  -->
<!DOCTYPE svg PUBLIC "-//W3C//DTD SVG 1.1//EN" "http://www.w3.org/Graphics/SVG/1.1/DTD/svg11.dtd">
<svg version="1.1" id="Layer_1" xmlns="http://www.w3.org/2000/svg" xmlns:xlink="http://www.w3.org/1999/xlink" x="0px" y="0px"
	 width="95.667px" height="89px" viewBox="0 0 95.667 89" enable-background="new 0 0 95.667 89" xml:space="preserve">
<g>
	<path fill="none" stroke="#FFFFFF" stroke-width="3" stroke-miterlimit="10" d="M38.054,40.871
		c-6.832,0-11.473-10.571-11.473-10.571s-4.125-2.191-4.125-7.219c0-3.867,3.48-4.125,3.48-4.125s-0.258-7.348-0.258-8.122
		s1.418-9.281,12.375-9.281s12.375,8.508,12.375,9.281s-0.258,8.122-0.258,8.122s3.48,0.258,3.48,4.125
		c0,5.027-4.125,7.219-4.125,7.219S44.886,40.871,38.054,40.871z"/>
	<path fill="none" stroke="#FFFFFF" stroke-width="3" stroke-miterlimit="10" d="M78.918,40.871
		c-6.832,0-11.473-10.571-11.473-10.571s-4.125-2.191-4.125-7.219c0-3.867,3.48-4.125,3.48-4.125s-0.258-7.348-0.258-8.122
		s1.418-9.281,12.375-9.281s12.375,8.508,12.375,9.281s-0.258,8.122-0.258,8.122s3.48,0.258,3.48,4.125
		c0,5.027-4.125,7.219-4.125,7.219S85.75,40.871,78.918,40.871z"/>
	<path fill="none" stroke="#FFFFFF" stroke-width="2" stroke-linecap="round" stroke-linejoin="round" stroke-miterlimit="5" d="
		M25.548,14.832c0,0,1.288,1.676,2.578,1.676s3.997-3.868,4.126-5.543c0.387,1.289,2.965,3.61,4.898,1.934
		c0.902,1.547,4.641,4.77,7.09,4.512s5.027-1.934,5.027-1.934"/>
	<path fill="none" stroke="#FFFFFF" stroke-width="2" stroke-linecap="round" stroke-linejoin="round" stroke-miterlimit="5" d="
		M66.412,14.316c0,0,3.223-2.708,5.414-2.708s6.961,2.965,7.863,4.641c1.031-0.645,3.48-0.258,4.254,1.676
		c0.645-1.547,3.353-6.962,7.478-5.286"/>
	<path fill="none" stroke="#FFFFFF" stroke-width="4" stroke-linejoin="round" stroke-miterlimit="5" d="M68.088,41.128
		c0,0-17.145,7.477-18.176,7.993s-6.059,3.836-6.059,7.059c0,2.191,0,25.813,0,25.813H70.15"/>
	<path fill="none" stroke="#FFFFFF" stroke-width="4" stroke-linejoin="round" stroke-miterlimit="5" d="M26.579,41.128
		c0,0-17.145,7.477-18.176,7.993s-6.059,3.836-6.059,7.059c0,2.191,0,25.813,0,25.813h11.297"/>
	<path fill="none" stroke="#FFFFFF" stroke-width="1.25" stroke-miterlimit="10" d="M78.271,55.309
		c-1.289,0-3.738-2.547-3.738-6.027c0-1.965,2.707-2.997,4.125-2.997s4.125,1.031,4.125,2.997c0,3.48-2.449,6.027-3.738,6.027
		H78.271z"/>
	<path fill="none" stroke="#FFFFFF" stroke-width="1.25" stroke-miterlimit="10" d="M76.596,58.531L74.018,85.86
		c0,0,4.641,2.191,4.641,2.836l0,0c0-0.645,4.641-2.836,4.641-2.836l-2.578-27.329H76.596z"/>
	<path fill="none" stroke="#FFFFFF" stroke-width="1.25" stroke-miterlimit="10" d="M30.413,59.183v5.922h2.961c0,0,0-4.738,0-5.384
		c0.915,0,2.906,1.776,2.906,3.984s-1.237,4.146-2.799,4.307c0,0.753,0.054,11.897,0.054,11.897s3.015,1.615,3.015,3.768
		s-1.292,4.899-4.307,4.899c0-0.861,0.054-5.437,0.054-5.437H29.39l-0.161,4.684c0,0-2.639-0.969-2.639-3.5s2.154-4.091,2.692-4.091
		c0-1.077,0-12.92,0-12.92s-2.746-1.507-2.746-3.769S28.583,59.183,30.413,59.183z"/>
	<path fill="none" stroke="#FFFFFF" stroke-width="1.25" stroke-miterlimit="10" d="M18.568,57.244l0.916,0.754v3.445l-0.916,1.292
		v24.226c0,0,0.431,1.292,1.992,1.292s2.261-1.399,2.261-1.399V62.413l-1.131-1.13v-3.284l0.889-0.889v-1.75h2.504l1.104,1.104
		h1.857h1.399V52.13h-3.445l-0.808,0.807h-1.83c0,0-0.055-1.668-1.938-1.668s-9.044,2.423-9.044,6.245
		c0,1.453,1.022,1.13,1.022,1.13s1.615-3.607,5.007-3.607C18.407,56.652,18.568,57.244,18.568,57.244z"/>
</g>
</svg>
