<?xml version="1.0" encoding="utf-8"?>
<!-- Generator: Adobe Illustrator 15.0.0, SVG Export Plug-In . SVG Version: 6.00 Build 0)  -->
<!DOCTYPE svg PUBLIC "-//W3C//DTD SVG 1.1//EN" "http://www.w3.org/Graphics/SVG/1.1/DTD/svg11.dtd">
<svg version="1.1" id="Layer_1" xmlns="http://www.w3.org/2000/svg" xmlns:xlink="http://www.w3.org/1999/xlink" x="0px" y="0px"
	 width="76.667px" height="86.667px" viewBox="0 0 76.667 86.667" enable-background="new 0 0 76.667 86.667" xml:space="preserve">
<g>
	<path fill="#FFFFFF" d="M76.826,84.087c0,0-11.704-25.788-12.622-25.992c-1.125-0.25-4.875,6.125-4.875,6.125l-20.5-49.645v-3.48
		h1.375c0,0,3-2,4.75-2s1.5,2.25,4,2.25s3.75-1.125,3.75-1.125l0.25-8c0,0-2,1.125-4.25,1.125s-2.625-2.25-6.125-2.25
		c-0.799,0-1.354,0.04-1.75,0.101V1.096h-2h-0.375h-1.5v17.735l-12.5,37.39c0,0-5.125-12.5-6.25-12.375
		c-0.916,0.102-17.48,38.759-17.48,38.759s-0.27,2.116,0.48,2.866s1,1.005,1,1.005l73.25,0.116c0,0,0.75-0.371,1.25-0.996
		S76.826,84.087,76.826,84.087z M40.086,2.346l0.106,7.875h-1.363V2.346H40.086z M6.954,81.255l11.625-25.409l2.666,4.354
		c0,0,1.709,1.896,3.834,1.396s4.02-3.12,4.02-3.12l9.342-29.755l15.995,38.182c0,0,2.143,1.568,4.143,1.818s4.75-1.75,4.75-1.75
		l6.5,14.375L6.954,81.255z"/>
</g>
</svg>
