<?xml version="1.0" encoding="utf-8"?>
<!-- Generator: Adobe Illustrator 15.0.0, SVG Export Plug-In . SVG Version: 6.00 Build 0)  -->
<!DOCTYPE svg PUBLIC "-//W3C//DTD SVG 1.1//EN" "http://www.w3.org/Graphics/SVG/1.1/DTD/svg11.dtd">
<svg version="1.1" id="Layer_1" xmlns="http://www.w3.org/2000/svg" xmlns:xlink="http://www.w3.org/1999/xlink" x="0px" y="0px"
	 width="102px" height="99px" viewBox="0 0 102 99" enable-background="new 0 0 102 99" xml:space="preserve">
<path d="M89.801,7.833H13.034c-2.412,0-4.367,1.955-4.367,4.367v76.766c0,2.412,1.955,4.367,4.367,4.367h76.767
	c2.411,0,4.366-1.955,4.366-4.367V12.201C94.167,9.789,92.212,7.833,89.801,7.833z M34.26,88.734H19.884V42.48H34.26V88.734z
	 M26.976,36.809c-4.538,0-7.47-3.219-7.47-7.187c0-4.072,3.026-7.188,7.659-7.188c4.635,0,7.473,3.115,7.566,7.188
	C34.731,33.59,31.8,36.809,26.976,36.809z M86.746,88.734H72.37V63.1c0-5.961-2.081-10.026-7.283-10.026
	c-3.972,0-6.334,2.743-7.375,5.395c-0.379,0.941-0.474,2.272-0.474,3.594v26.671H42.862V57.235c0-5.767-0.188-10.594-0.377-14.755
	h12.482l0.664,6.434h0.282c1.892-3.026,6.526-7.471,14.282-7.471c9.457,0,16.55,6.334,16.55,19.955V88.734z"/>
</svg>
