<?xml version="1.0" encoding="utf-8"?>
<!-- Generator: Adobe Illustrator 15.0.0, SVG Export Plug-In . SVG Version: 6.00 Build 0)  -->
<!DOCTYPE svg PUBLIC "-//W3C//DTD SVG 1.1//EN" "http://www.w3.org/Graphics/SVG/1.1/DTD/svg11.dtd">
<svg version="1.1" id="Layer_1" xmlns="http://www.w3.org/2000/svg" xmlns:xlink="http://www.w3.org/1999/xlink" x="0px" y="0px"
	 width="102px" height="99px" viewBox="0 0 102 99" enable-background="new 0 0 102 99" xml:space="preserve">
<path d="M25.189,41.991c0-11.828,9.59-21.416,21.41-21.416c11.83,0,22.37,10.54,22.37,22.368c0,11.827-9.591,21.416-21.421,21.416
	C35.729,64.359,25.189,53.82,25.189,41.991L25.189,41.991z M92.89,77.894L74,59c2.85-4.68,4.489-10.177,4.489-16.057
	c0-17.083-14.8-31.885-31.89-31.885c-17.08,0-30.93,13.849-30.93,30.933s14.8,31.885,31.879,31.885c5.681,0,11-1.538,15.58-4.21
	l19,18.997c1.851,1.86,4.871,1.86,6.73,0l4.71-4.71C95.43,82.093,94.75,79.753,92.89,77.894L92.89,77.894z"/>
</svg>
