<?xml version="1.0" encoding="utf-8"?>
<!-- Generator: Adobe Illustrator 15.0.0, SVG Export Plug-In . SVG Version: 6.00 Build 0)  -->
<!DOCTYPE svg PUBLIC "-//W3C//DTD SVG 1.1//EN" "http://www.w3.org/Graphics/SVG/1.1/DTD/svg11.dtd">
<svg version="1.1" id="Layer_1" xmlns="http://www.w3.org/2000/svg" xmlns:xlink="http://www.w3.org/1999/xlink" x="0px" y="0px"
	 width="102px" height="99px" viewBox="0 0 102 99" enable-background="new 0 0 102 99" xml:space="preserve">
<path d="M95.974,25.353c-3.39,1.5-7.03,2.521-10.84,2.971c3.89-2.33,6.89-6.029,8.3-10.439c-3.649,2.16-7.689,3.74-11.99,4.58
	c-3.439-3.67-8.35-5.961-13.779-5.961c-10.42,0-18.87,8.451-18.87,18.881c0,1.479,0.16,2.92,0.49,4.299
	c-15.69-0.789-29.601-8.299-38.91-19.719c-1.62,2.779-2.55,6.029-2.55,9.49c0,6.539,3.33,12.318,8.39,15.709
	c-3.09-0.1-6-0.949-8.55-2.359c0,0.07,0,0.15,0,0.229c0,9.15,6.51,16.781,15.14,18.512c-1.579,0.43-3.25,0.66-4.97,0.66
	c-1.221,0-2.4-0.111-3.55-0.342c2.399,7.5,9.37,12.961,17.63,13.111c-6.46,5.07-14.6,8.08-23.439,8.08c-1.521,0-3.031-0.09-4.5-0.26
	c8.35,5.35,18.27,8.479,28.93,8.479c34.72,0,53.709-28.76,53.709-53.709c0-0.811-0.02-1.631-0.06-2.439
	C90.244,32.464,93.443,29.144,95.974,25.353L95.974,25.353z"/>
</svg>
